<svg width="513" height="269" viewBox="0 0 513 269" fill="none" xmlns="http://www.w3.org/2000/svg">
<g clip-path="url(#clip0_52_180)">
<path d="M48.6 51.51C48.42 38.89 50.94 29.41 56.53 20.84C62.83 11.2 71.63 4.93003 82.69 1.78003C87.05 0.540028 91.51 -0.0199716 95.99 2.84488e-05C106.99 0.0400284 117.08 3.06003 125.84 9.91003C132.99 15.51 138.04 22.66 141 31.25C144.97 42.76 145.04 54.36 141.37 65.94C139.35 72.33 136.04 78.03 131.48 83C123.79 91.38 114.25 96.13 103.06 97.56C93.02 98.85 83.26 97.66 74.14 93.05C62.31 87.07 54.62 77.53 50.76 64.89C49.02 59.17 48.61 55.71 48.59 51.49L48.6 51.51ZM95.53 12.34C94 12.25 91.91 12.46 89.83 12.86C78.45 15.02 70.35 21.45 65.54 31.9C61.58 40.53 61.01 49.6 63.04 58.79C65.01 67.69 69.53 75.05 77.22 80.19C84.56 85.09 92.71 86.61 101.36 85.35C113.69 83.55 122.32 76.74 127.23 65.38C130.91 56.88 131.29 48.01 129.28 39.02C127.65 31.78 124.22 25.49 118.66 20.56C112.27 14.88 104.66 12.25 95.53 12.33V12.34Z" fill="white"/>
<path d="M419.67 77.18C413.16 77.18 406.64 77.2 400.13 77.16C399.05 77.16 398.45 77.45 398.01 78.49C395.63 84.04 393.14 89.56 390.76 95.11C390.34 96.08 389.82 96.46 388.75 96.44C384.93 96.39 381.1 96.43 377.28 96.42C375.93 96.42 375.89 96.36 376.39 95.12C380.56 84.86 384.74 74.61 388.92 64.35C395.23 48.86 401.54 33.37 407.85 17.87C409.38 14.11 410.93 10.37 412.46 6.61004C413.71 3.52004 416.46 1.54004 419.53 1.54004C423.09 1.54004 425.75 3.31004 427.08 6.59004C430.94 16.05 434.79 25.51 438.65 34.97C446.72 54.76 454.78 74.55 462.85 94.34C463.69 96.39 463.68 96.41 461.51 96.41C458 96.42 454.49 96.36 450.98 96.45C449.76 96.48 449.17 96.03 448.71 94.95C446.37 89.5 443.94 84.1 441.61 78.65C441.14 77.56 440.56 77.14 439.34 77.15C432.79 77.21 426.23 77.18 419.68 77.18H419.67ZM419.75 22.38C419.42 23.23 419.2 23.76 419.01 24.29C417.17 29.22 415.34 34.15 413.49 39.08C410.34 47.48 407.2 55.87 404.03 64.26C403.67 65.22 403.89 65.46 404.89 65.46C414.72 65.43 424.55 65.45 434.38 65.44C435.89 65.44 435.9 65.42 435.38 64.03C430.56 51.14 425.74 38.25 420.91 25.36C420.58 24.47 420.22 23.58 419.74 22.37L419.75 22.38Z" fill="white"/>
<path d="M179.05 78.1001C179.05 72.6001 178.99 67.1001 179.06 61.6101C179.15 54.7001 184.71 49.1201 191.63 48.8301C195.75 48.6601 199.88 48.9101 203.99 48.7901C208.84 48.6501 213.74 49.0601 218.48 47.5001C223.69 45.7901 227.82 42.8001 229.47 37.3901C231.54 30.5901 230.9 24.1701 225.63 18.8401C223.42 16.6001 220.63 15.2901 217.6 14.4801C215.1 13.8101 212.56 13.5101 209.97 13.5201C200.26 13.5401 190.54 13.5201 180.83 13.5201C179.04 13.5201 179.04 13.5201 179.04 11.6801C179.04 8.83014 179.06 5.99014 179.01 3.14014C178.99 2.14014 179.34 1.76014 180.37 1.77014C185.38 1.79014 190.4 1.77014 195.41 1.74014C199.84 1.72014 204.27 1.64014 208.7 1.64014C215.71 1.64014 222.55 2.46014 228.88 5.76014C237.51 10.2601 242.48 17.3201 243.67 26.9801C244.46 33.3601 243.67 39.5201 240.57 45.2401C237.37 51.1401 232.45 55.1201 226.33 57.7001C224.85 58.3201 224.84 58.2701 225.72 59.6801C233.03 71.4301 240.33 83.1901 247.63 94.9501C247.87 95.3301 248.37 95.7301 248.08 96.1901C247.81 96.6201 247.22 96.4101 246.77 96.4101C242.6 96.4201 238.42 96.4001 234.25 96.4501C233.23 96.4601 232.62 96.1201 232.08 95.2501C225.3 84.1801 218.48 73.1301 211.7 62.0601C211.03 60.9701 210.29 60.5201 208.98 60.5501C204.34 60.6401 199.7 60.5901 195.06 60.6001C193.11 60.6001 192.38 61.3401 192.38 63.2801C192.38 73.6901 192.38 84.1101 192.38 94.5201C192.38 95.7868 191.763 96.4201 190.53 96.4201C187.21 96.4201 183.9 96.4101 180.58 96.4201C179.07 96.4201 179 96.3801 179 94.8601C179 89.2801 179 83.7101 179 78.1301H179.03L179.05 78.1001Z" fill="white"/>
<path d="M287.91 53.74C287.91 43.21 287.91 32.6799 287.91 22.15C287.91 15.88 287.91 9.59995 287.91 3.32995C287.91 1.65995 287.91 1.68995 289.58 1.67995C292.96 1.66995 296.35 1.64995 299.73 1.56995C300.89 1.53995 301.29 1.92995 301.28 3.11995C301.25 14.0399 301.28 24.96 301.28 35.88C301.28 51.6 301.29 67.3099 301.26 83.0299C301.26 84.2099 301.72 84.4499 302.78 84.4499C316.63 84.4199 330.48 84.4299 344.33 84.4199C346.43 84.4199 346.43 84.4199 346.43 86.4599C346.43 89.2699 346.38 92.0799 346.45 94.8799C346.48 96.0399 346.12 96.4299 344.92 96.4299C328.42 96.3899 311.92 96.3999 295.42 96.3999C293.51 96.3999 291.6 96.3999 289.69 96.3999C287.91 96.3999 287.9 96.3899 287.9 94.5599C287.9 85.3999 287.9 76.2299 287.9 67.0699C287.9 62.6199 287.9 58.1799 287.9 53.7299C287.9 53.7299 287.91 53.7299 287.92 53.7299L287.91 53.74Z" fill="white"/>
<path d="M261.22 268.72C259.74 268.72 258.26 268.69 256.78 268.72C255.96 268.74 255.56 268.47 255.57 267.59C255.59 261.04 255.58 254.5 255.57 247.95C255.57 247.34 255.69 246.84 256.45 246.86C259.99 246.94 263.55 246.55 267.07 247.08C269.28 247.42 271.04 248.55 271.7 250.84C272.34 253.08 271.88 255.1 270.07 256.67C269.56 257.11 269.7 257.3 270.17 257.6C274.02 260.05 273.12 266.29 268.74 268.03C266.74 268.82 264.69 268.71 262.63 268.72C262.16 268.72 261.69 268.72 261.23 268.72H261.22ZM259.89 262.14C259.89 262.88 259.9 263.62 259.89 264.36C259.87 264.97 260.07 265.33 260.75 265.3C262.34 265.25 263.94 265.41 265.53 265.11C267.21 264.79 268.19 263.69 268.18 262.07C268.17 260.47 267.13 259.33 265.42 259.14C264.61 259.05 263.79 259.07 262.97 259.07C260.91 259.07 259.883 260.093 259.89 262.14ZM263.01 250.45C263.01 250.45 263.01 250.42 263.01 250.41C262.27 250.41 261.53 250.41 260.79 250.41C260.15 250.41 259.88 250.7 259.89 251.34C259.91 252.43 259.89 253.52 259.89 254.61C259.89 255.08 259.98 255.5 260.56 255.49C262.27 255.47 263.99 255.7 265.68 255.33C267.04 255.03 267.72 254.09 267.65 252.82C267.57 251.52 266.72 250.6 265.34 250.46C264.57 250.38 263.79 250.45 263.01 250.45V250.45Z" fill="white"/>
<path d="M0 138.81H512.08C511.35 139.33 1.49 139.5 0 138.81Z" fill="white"/>
<path d="M197.71 257.79C197.71 254.59 197.74 251.4 197.69 248.2C197.68 247.2 198 246.79 199.03 246.83C202.02 246.96 205.04 246.56 208.02 247.03C213.07 247.81 216.24 251.4 216.54 256.52C216.66 258.45 216.43 260.34 215.76 262.15C214.29 266.09 210.86 268.56 206.64 268.69C204.07 268.76 201.49 268.69 198.92 268.72C198.01 268.73 197.61 268.39 197.71 267.49C197.71 267.45 197.71 267.41 197.71 267.37C197.71 264.17 197.71 260.98 197.71 257.78V257.79ZM202.05 257.73C202.05 259.83 202.05 261.94 202.05 264.04C202.05 264.58 202.07 265.1 202.81 265.09C204.21 265.07 205.63 265.18 207.01 264.99C209.04 264.72 210.53 263.55 211.31 261.63C212.28 259.27 212.36 256.85 211.53 254.44C210.68 251.94 208.7 250.54 206.05 250.47C205.08 250.44 204.1 250.5 203.13 250.45C202.32 250.41 202.02 250.73 202.04 251.54C202.08 253.6 202.05 255.67 202.05 257.73Z" fill="white"/>
<path d="M240.15 254.53C240.15 252.43 240.18 250.32 240.14 248.22C240.12 247.24 240.43 246.81 241.48 246.84C245.09 246.93 244.61 246.38 244.6 249.92C244.58 253.7 244.74 257.48 244.46 261.25C244.11 265.95 241.16 268.84 236.43 268.94C235.42 268.96 234.39 269 233.4 268.83C229.01 268.09 226.66 265.3 226.56 260.58C226.48 256.41 226.56 252.24 226.53 248.07C226.53 247.16 226.88 246.83 227.78 246.84C231.49 246.9 230.83 246.45 230.87 249.82C230.91 253.05 230.87 256.29 230.89 259.53C230.89 260.19 230.96 260.85 231.07 261.5C231.66 264.81 234.51 266.39 237.63 265.13C239.44 264.4 240.02 262.83 240.09 261.09C240.18 258.91 240.11 256.73 240.11 254.54C240.13 254.54 240.14 254.54 240.16 254.54L240.15 254.53Z" fill="white"/>
<path d="M290.81 246.85C293.56 246.91 293.03 246.35 294.09 249.28C296.26 255.29 298.42 261.3 300.59 267.31C301.07 268.65 301.03 268.7 299.66 268.71C297.58 268.73 296.18 267.767 295.46 265.82C294.833 264.12 293.62 263.27 291.82 263.27C290.42 263.27 289.01 263.3 287.61 263.27C286.87 263.25 286.47 263.55 286.26 264.26C285.9 265.45 285.45 266.62 285.06 267.8C284.85 268.45 284.46 268.75 283.77 268.72C282.99 268.69 282.21 268.69 281.43 268.72C280.63 268.74 280.51 268.4 280.76 267.71C283.07 261.05 285.37 254.39 287.66 247.72C287.87 247.12 288.23 246.83 288.87 246.85C289.45 246.87 290.04 246.85 290.83 246.85H290.81ZM290.45 250.72C289.56 253.53 288.76 256.06 287.95 258.57C287.74 259.23 287.93 259.52 288.63 259.51C289.92 259.5 291.2 259.49 292.49 259.51C293.22 259.53 293.38 259.24 293.15 258.58C292.27 256.05 291.41 253.51 290.45 250.7V250.72Z" fill="white"/>
<path d="M433.83 184.14C433.83 190.74 433.83 197.05 433.83 203.37C433.83 204.13 433.81 204.77 432.77 204.77C431.93 204.77 431.57 204.47 431.59 203.6C431.63 201.46 431.6 199.31 431.6 197.17C431.6 191.98 431.59 186.8 431.61 181.61C431.61 180.98 431.28 180.14 432.39 179.96C433.89 179.73 434.5 179.96 434.96 181.07C437.33 186.88 439.7 192.69 442.07 198.5C442.26 198.96 442.46 199.41 442.81 199.85C442.81 198.35 442.89 196.85 442.8 195.36C442.51 190.64 442.76 185.93 442.66 181.21C442.64 180.34 442.95 179.93 443.88 179.92C444.84 179.92 445.06 180.37 445.06 181.22C445.04 188.63 445.06 196.04 445.05 203.45C445.05 203.98 445.15 204.68 444.37 204.7C443.57 204.72 442.62 205.13 442.03 204.17C441.87 203.91 441.78 203.6 441.66 203.31C439.16 197.09 436.67 190.86 434.17 184.64C434.13 184.54 434.05 184.45 433.84 184.13L433.83 184.14Z" fill="white"/>
<path d="M109.27 192.25C109.27 188.62 109.29 185 109.25 181.37C109.24 180.32 109.6 179.88 110.67 179.93C112.65 180.02 114.64 179.84 116.63 180.1C119.14 180.44 120.85 181.84 121.3 184.32C121.8 187.09 121.77 189.8 119.17 191.72C118.77 192.01 118.93 192.2 119.23 192.42C120.85 193.6 121.19 195.35 121.25 197.19C121.32 199.25 121.18 201.32 121.47 203.38C121.54 203.91 121.77 204.61 120.76 204.6C119.92 204.59 119.09 204.71 119.03 203.46C118.96 201.94 118.81 200.43 118.85 198.91C118.87 198.09 118.85 197.27 118.78 196.46C118.61 194.57 117.77 193.57 115.95 193.25C114.61 193.01 113.03 192.67 111.97 193.37C111.13 193.92 111.7 195.48 111.68 196.59C111.63 198.85 111.64 201.11 111.68 203.37C111.7 204.26 111.41 204.62 110.47 204.62C109.53 204.62 109.25 204.24 109.25 203.36C109.27 199.66 109.25 195.95 109.25 192.25H109.27ZM111.67 186.5C111.67 186.97 111.67 187.44 111.67 187.9C111.67 190.3 112.883 191.357 115.31 191.07C117.39 190.82 118.42 190.05 118.89 188.26C119.19 187.12 119.18 185.93 118.92 184.79C118.55 183.2 117.4 182.24 115.76 182.14C114.71 182.07 113.65 182.14 112.6 182.11C111.87 182.09 111.65 182.45 111.67 183.11C111.69 184.24 111.67 185.37 111.67 186.5V186.5Z" fill="white"/>
<path d="M241.52 192.23C241.52 188.6 241.55 184.98 241.5 181.35C241.49 180.28 241.85 179.87 242.92 179.93C244.79 180.03 246.66 179.85 248.53 180.08C251.68 180.46 253.56 182.33 253.76 185.5C253.91 187.87 253.58 190.11 251.49 191.69C251.18 191.92 251.06 192.14 251.44 192.41C253.26 193.7 253.43 195.66 253.53 197.62C253.64 199.64 253.41 201.67 253.75 203.69C253.84 204.25 253.64 204.63 253.01 204.58C252.37 204.53 251.54 204.9 251.34 203.82C251.07 202.35 251.14 200.87 251.12 199.39C251.1 198.22 251.21 197.05 250.92 195.9C250.48 194.15 249.77 193.47 248 193.17C244.29 192.54 243.95 192.82 243.95 196.49C243.95 198.63 243.95 200.78 243.95 202.92C243.95 203.78 244.11 204.64 242.71 204.62C241.28 204.6 241.54 203.68 241.53 202.87C241.52 199.32 241.53 195.77 241.53 192.23H241.52ZM243.94 186.53C243.94 187.04 243.94 187.54 243.94 188.05C243.94 191.35 243.94 191.37 247.27 191.08C248.79 190.95 250.24 190.59 250.88 188.95C251.44 187.53 251.52 186.07 251.09 184.6C250.72 183.33 249.89 182.53 248.58 182.25C247.27 181.97 245.94 182.14 244.61 182.13C244.02 182.13 243.94 182.55 243.94 183.02C243.94 184.19 243.94 185.36 243.94 186.53V186.53Z" fill="white"/>
<path d="M67.83 192.29C67.83 188.66 67.86 185.04 67.81 181.41C67.8 180.3 68.19 179.86 69.31 179.92C70.94 180 72.58 179.9 74.21 180.08C76.95 180.38 78.86 181.79 79.94 184.28C81.35 187.52 81.35 190.95 81.12 194.39C81.05 195.36 80.91 196.33 80.73 197.28C79.73 202.5 77.19 204.63 71.89 204.75C71.03 204.77 70.17 204.71 69.32 204.77C68.21 204.85 67.8 204.41 67.81 203.29C67.86 199.63 67.83 195.96 67.83 192.3V192.29ZM70.24 192.34C70.24 195.34 70.24 198.34 70.24 201.35C70.24 201.39 70.24 201.43 70.24 201.47C70.26 201.97 70.18 202.46 70.93 202.58C74.6 203.15 77.24 201.49 78.11 197.86C78.98 194.25 79.04 190.6 78.27 186.97C77.62 183.94 76.1 182.51 73.29 182.18C72.67 182.11 72.04 182.18 71.42 182.13C70.48 182.04 70.21 182.44 70.22 183.35C70.26 186.35 70.24 189.35 70.24 192.36V192.34Z" fill="white"/>
<path d="M102.05 192.12C101.94 194.77 101.84 197.34 101.11 199.83C99.96 203.78 96.96 205.69 93.26 204.82C91.36 204.37 90.1499 203.14 89.3199 201.44C88.4699 199.69 88.13 197.8 88.01 195.89C87.79 192.54 87.7099 189.19 88.4599 185.88C88.6899 184.89 89.0499 183.95 89.5199 183.04C90.6999 180.71 92.6 179.59 95.19 179.65C97.79 179.71 99.62 180.97 100.66 183.35C101.89 186.17 101.92 189.19 102.05 192.11V192.12ZM99.5999 192.37C99.5099 190.82 99.49 189.46 99.33 188.11C99.15 186.6 98.89 185.09 98.12 183.75C96.63 181.18 93.3499 181.17 91.8499 183.72C91.3899 184.5 91.0799 185.34 90.8799 186.22C90.1799 189.41 90.2399 192.64 90.4999 195.86C90.6299 197.53 90.9299 199.18 91.7099 200.7C92.3799 202.01 93.3899 202.82 94.9199 202.84C96.4699 202.86 97.47 202.06 98.16 200.75C98.51 200.09 98.7399 199.39 98.9299 198.68C99.4999 196.55 99.3299 194.35 99.5899 192.38L99.5999 192.37Z" fill="white"/>
<path d="M304.37 192.28C304.44 194.66 304.28 197.15 303.59 199.57C302.82 202.28 301.45 204.4 298.38 204.92C295.63 205.38 293.13 204.19 291.85 201.69C290.71 199.44 290.47 197 290.31 194.54C290.07 191.01 290.21 187.51 291.42 184.15C292.8 180.32 296.18 178.72 299.82 180.09C301.6 180.76 302.61 182.15 303.25 183.86C304.25 186.54 304.4 189.33 304.35 192.28H304.37ZM301.9 192.22C301.9 191.4 301.95 190.58 301.89 189.77C301.74 187.75 301.59 185.72 300.6 183.89C299.93 182.64 298.92 181.89 297.43 181.85C295.92 181.81 294.94 182.59 294.22 183.79C293.82 184.46 293.53 185.19 293.36 185.95C292.54 189.52 292.57 193.12 293.01 196.73C293.18 198.09 293.47 199.42 294.1 200.65C294.97 202.38 296.54 203.19 298.22 202.75C300 202.29 300.7 200.83 301.16 199.27C301.84 196.97 301.96 194.6 301.89 192.22H301.9Z" fill="white"/>
<path d="M424.23 192.33C424.33 194.62 424.13 197.07 423.48 199.45C422.73 202.2 421.37 204.39 418.25 204.92C415.42 205.41 412.98 204.21 411.67 201.59C410.46 199.15 410.24 196.49 410.13 193.85C409.99 190.22 410.1 186.59 411.71 183.2C412.92 180.66 414.96 179.49 417.75 179.67C420.48 179.84 422.19 181.37 423.12 183.86C424.12 186.54 424.28 189.33 424.22 192.33H424.23ZM421.78 192.15C421.84 190.2 421.71 188.18 421.28 186.2C421.04 185.09 420.7 184.02 419.94 183.13C418.38 181.29 415.69 181.42 414.33 183.4C413.8 184.18 413.44 185.04 413.22 185.96C412.37 189.61 412.39 193.29 412.89 196.97C413.07 198.32 413.34 199.66 414.05 200.86C414.77 202.07 415.75 202.88 417.25 202.85C418.73 202.82 419.73 202.07 420.4 200.8C420.82 200 421.1 199.15 421.28 198.27C421.68 196.28 421.82 194.26 421.77 192.16L421.78 192.15Z" fill="white"/>
<path d="M161.52 192.41C161.52 196.07 161.5 199.74 161.53 203.4C161.53 204.3 161.32 204.77 160.3 204.77C159.26 204.77 159.08 204.26 159.09 203.38C159.12 200.22 159.07 197.07 159.12 193.91C159.13 192.95 158.81 192.61 157.84 192.64C155.93 192.7 154.02 192.71 152.11 192.64C151.1 192.6 150.75 192.91 150.77 193.96C150.83 197.12 150.77 200.27 150.8 203.43C150.8 204.24 150.68 204.77 149.68 204.78C148.73 204.78 148.35 204.44 148.36 203.48C148.38 196.07 148.38 188.67 148.36 181.26C148.36 180.32 148.69 179.93 149.66 179.93C150.63 179.93 150.81 180.41 150.8 181.25C150.77 183.9 150.82 186.55 150.77 189.2C150.75 190.17 151.08 190.51 152.05 190.49C154 190.44 155.95 190.44 157.9 190.49C158.81 190.51 159.14 190.16 159.12 189.26C159.08 186.61 159.12 183.96 159.1 181.31C159.09 180.42 159.3 179.93 160.32 179.93C161.34 179.93 161.54 180.43 161.54 181.32C161.51 185.02 161.53 188.73 161.53 192.43L161.52 192.41Z" fill="white"/>
<path d="M197.26 198.23C197.39 196.03 196.12 194.44 194.06 193.35C192.72 192.64 191.32 192.03 190.09 191.11C186.83 188.67 186.42 183.8 189.31 181.19C191.2 179.48 193.45 179.31 195.78 180.1C197.9 180.82 198.83 182.54 199.18 184.62C199.28 185.19 199.5 185.95 198.51 186.05C197.69 186.14 197 186.11 196.78 185.02C196.37 183 195.46 182.07 193.97 181.88C192.2 181.66 190.91 182.22 190.28 183.49C189.48 185.09 189.74 187.27 190.88 188.54C191.52 189.25 192.33 189.71 193.16 190.16C194.22 190.73 195.32 191.26 196.33 191.92C199.62 194.09 200.71 198.44 198.9 201.93C197.6 204.44 194.49 205.58 191.17 204.76C188.7 204.15 186.77 201.66 186.74 199.07C186.74 198.59 186.82 198.16 187.39 198.17C188 198.18 188.77 197.82 189.1 198.71C189.17 198.89 189.16 199.09 189.2 199.28C189.76 201.87 191.46 203.08 194.13 202.81C196.15 202.6 197.26 201.07 197.26 198.22V198.23Z" fill="white"/>
<path d="M223.7 192.27C223.7 188.61 223.73 184.94 223.68 181.28C223.67 180.25 224.03 179.91 225.04 179.92C227.85 179.96 230.65 179.95 233.46 179.92C234.3 179.92 234.78 180.15 234.77 181.11C234.76 182.08 234.18 182.13 233.45 182.12C231.38 182.1 229.32 182.14 227.25 182.1C226.38 182.08 226.08 182.42 226.09 183.26C226.13 185.25 226.13 187.24 226.09 189.22C226.07 190.12 226.4 190.48 227.32 190.46C229.19 190.42 231.06 190.46 232.93 190.45C233.67 190.45 234.33 190.45 234.34 191.51C234.35 192.64 233.68 192.64 232.88 192.63C231.01 192.61 229.14 192.65 227.27 192.61C226.42 192.59 226.08 192.89 226.09 193.76C226.12 196.33 226.12 198.91 226.09 201.48C226.09 202.29 226.4 202.58 227.2 202.56C229.46 202.53 231.72 202.54 233.98 202.56C234.44 202.56 235.09 202.37 235.04 203.22C235 203.92 235.02 204.7 234 204.72C233.14 204.74 232.28 204.74 231.43 204.74C229.36 204.74 227.3 204.74 225.23 204.74C223.73 204.74 223.69 204.69 223.69 203.13C223.69 199.5 223.69 195.88 223.69 192.25L223.7 192.27Z" fill="white"/>
<path d="M273.23 192.39C273.16 195.01 273.25 197.62 274.2 200.11C275.03 202.29 276.77 203.27 278.66 202.67C280.47 202.1 281.22 200.64 281.45 198.96C281.61 197.73 282.24 197.62 283.2 197.7C283.8 197.75 284.05 198.04 283.97 198.61C283.61 201.26 282.37 204.35 278.58 204.94C275.51 205.42 272.91 203.93 271.74 200.91C271.21 199.55 270.92 198.13 270.83 196.69C270.62 193.19 270.46 189.69 271.21 186.22C271.45 185.11 271.82 184.05 272.35 183.04C273.8 180.28 276.46 179.11 279.53 179.84C282.5 180.55 283.55 182.99 283.92 185.8C283.99 186.35 283.79 186.76 283.17 186.72C282.57 186.69 281.77 187.06 281.52 186.09C281.37 185.53 281.29 184.94 281.11 184.39C280.67 182.95 279.7 182.05 278.19 181.9C276.66 181.75 275.46 182.39 274.66 183.72C273.6 185.48 273.37 187.46 273.22 189.45C273.14 190.42 273.21 191.4 273.21 192.37L273.23 192.39Z" fill="white"/>
<path d="M128.17 191.68C128.14 190.19 128.3 187.82 128.94 185.51C129.62 183.08 130.7 180.89 133.31 179.97C137.39 178.54 141.46 181.5 141.43 185.85C141.43 186.39 141.35 186.81 140.7 186.75C140.07 186.69 139.21 187.08 139.02 186.01C138.92 185.48 138.86 184.93 138.7 184.41C138.24 183 137.3 182.07 135.78 181.9C134.23 181.73 133.05 182.41 132.25 183.71C131.56 184.82 131.23 186.05 131.03 187.34C130.47 191.03 130.58 194.71 131.21 198.38C131.36 199.26 131.66 200.11 132.1 200.9C133.53 203.42 136.79 203.45 138.28 200.96C138.68 200.28 138.88 199.53 139.03 198.76C139.24 197.74 139.82 197.46 140.94 197.7C141.9 197.91 141.48 198.6 141.41 199.1C140.75 203.45 137.5 205.75 133.41 204.79C131.26 204.29 130.03 202.81 129.29 200.85C128.28 198.18 128.21 195.37 128.17 191.66V191.68Z" fill="white"/>
<path d="M363 192.82C362.92 189.77 363.11 186.87 364.18 184.08C365.55 180.51 368.63 178.89 372.1 179.91C374.48 180.61 376.43 183.51 376.22 185.97C376.17 186.6 375.82 186.78 375.3 186.75C374.72 186.72 373.94 187 373.82 186.06C373.72 185.32 373.58 184.6 373.26 183.92C372.14 181.5 368.9 181.16 367.28 183.28C366.35 184.5 365.95 185.94 365.76 187.41C365.29 191.02 365.28 194.64 365.94 198.24C366.12 199.24 366.42 200.21 366.97 201.08C368.44 203.42 371.48 203.43 372.96 201.09C373.43 200.35 373.7 199.54 373.79 198.68C373.93 197.41 374.89 197.69 375.66 197.72C376.58 197.76 376.26 198.49 376.2 198.96C375.69 203.31 372.32 205.75 368.2 204.81C365.94 204.29 364.7 202.73 363.97 200.68C363.05 198.1 362.94 195.42 362.99 192.82H363Z" fill="white"/>
<path d="M345.9 192.35C345.9 188.69 345.93 185.02 345.88 181.36C345.86 180.29 346.21 179.91 347.28 179.93C349.97 179.98 352.66 179.94 355.35 179.95C356.1 179.95 356.83 179.86 356.85 181.03C356.86 182.18 356.19 182.14 355.41 182.14C353.38 182.13 351.35 182.16 349.33 182.12C348.49 182.1 348.13 182.34 348.15 183.24C348.2 185.27 348.2 187.29 348.15 189.32C348.13 190.18 348.45 190.5 349.3 190.49C351.25 190.45 353.2 190.49 355.15 190.48C355.94 190.48 356.52 190.6 356.52 191.61C356.52 192.67 355.87 192.67 355.12 192.66C353.21 192.65 351.3 192.69 349.39 192.64C348.51 192.62 348.12 192.85 348.15 193.82C348.21 196.35 348.21 198.89 348.15 201.42C348.13 202.39 348.52 202.61 349.39 202.59C351.65 202.55 353.91 202.58 356.18 202.58C356.74 202.58 357.33 202.56 357.26 203.4C357.2 204.09 357.12 204.76 356.18 204.75C353.06 204.75 349.94 204.75 346.82 204.75C345.9 204.75 345.9 204.13 345.9 203.47C345.9 199.77 345.9 196.06 345.9 192.36V192.35Z" fill="white"/>
<path d="M169.84 192.27C169.84 188.61 169.87 184.94 169.82 181.28C169.81 180.24 170.18 179.91 171.18 179.93C173.95 179.97 176.72 179.96 179.48 179.93C180.3 179.93 180.79 180.1 180.78 181.1C180.77 182.08 180.23 182.14 179.5 182.13C177.39 182.11 175.29 182.15 173.18 182.11C172.38 182.1 172.07 182.37 172.08 183.19C172.12 185.25 172.12 187.32 172.08 189.39C172.07 190.21 172.4 190.49 173.19 190.48C175.14 190.45 177.09 190.48 179.04 190.48C179.8 190.48 180.44 190.53 180.45 191.56C180.47 192.58 179.88 192.67 179.09 192.66C177.1 192.64 175.11 192.67 173.13 192.64C172.39 192.63 172.07 192.87 172.08 193.65C172.11 196.3 172.11 198.95 172.08 201.6C172.08 202.4 172.43 202.59 173.15 202.58C175.45 202.56 177.75 202.57 180.05 202.58C180.58 202.58 181.23 202.47 181.17 203.35C181.11 204.08 181.02 204.77 180.02 204.76C176.98 204.75 173.94 204.74 170.9 204.76C169.98 204.76 169.83 204.27 169.83 203.49C169.85 199.75 169.84 196.01 169.83 192.26L169.84 192.27Z" fill="white"/>
<path d="M309.88 257.77C309.88 254.58 309.91 251.38 309.86 248.19C309.85 247.18 310.2 246.81 311.22 246.83C314.78 246.9 314.18 246.46 314.2 249.8C314.23 255.6 314.18 261.4 314.23 267.21C314.24 268.38 313.9 268.78 312.71 268.74C309.52 268.63 309.9 269.13 309.88 265.95C309.86 263.22 309.88 260.5 309.88 257.77V257.77Z" fill="white"/>
<path d="M209.89 193.3C209.89 189.99 209.86 186.68 209.91 183.36C209.92 182.38 209.59 182.04 208.63 182.1C207.54 182.16 206.45 182.09 205.36 182.12C204.58 182.14 204.34 181.76 204.34 181.05C204.34 180.35 204.58 179.93 205.35 179.93C209.17 179.93 212.99 179.93 216.81 179.93C217.61 179.93 217.75 180.39 217.76 181.08C217.76 181.83 217.46 182.14 216.72 182.11C215.67 182.08 214.61 182.17 213.56 182.09C212.43 182 212.3 182.59 212.3 183.51C212.32 189.86 212.31 196.21 212.31 202.56C212.31 202.95 212.29 203.34 212.31 203.73C212.32 204.59 211.78 204.74 211.08 204.74C210.35 204.74 209.9 204.55 209.91 203.69C209.93 200.22 209.92 196.75 209.92 193.29L209.89 193.3Z" fill="white"/>
<path d="M311.73 192.34C311.73 188.68 311.75 185.01 311.71 181.35C311.7 180.39 311.94 179.92 313.01 179.93C314.09 179.94 314.18 180.52 314.18 181.36C314.16 187.91 314.18 194.46 314.18 201.01C314.18 202.57 314.18 202.58 315.71 202.58C317.7 202.58 319.69 202.57 321.68 202.59C322.13 202.59 322.84 202.4 322.79 203.21C322.75 203.92 322.76 204.77 321.65 204.76C319.7 204.76 317.75 204.76 315.8 204.76C314.83 204.76 313.85 204.73 312.88 204.76C311.91 204.8 311.72 204.28 311.73 203.44C311.76 199.74 311.74 196.03 311.74 192.33L311.73 192.34Z" fill="white"/>
<path d="M328.81 192.26C328.81 188.64 328.83 185.02 328.8 181.39C328.8 180.49 328.89 179.9 330.03 179.92C331.18 179.93 331.24 180.59 331.24 181.45C331.23 187.95 331.24 194.46 331.24 200.96C331.24 202.56 331.24 202.56 332.86 202.57C334.85 202.57 336.83 202.57 338.82 202.58C339.24 202.58 339.91 202.42 339.85 203.15C339.8 203.79 339.89 204.68 338.86 204.72C337.62 204.77 336.37 204.75 335.12 204.75C333.44 204.75 331.77 204.72 330.09 204.76C329.15 204.78 328.78 204.45 328.8 203.47C328.84 199.73 328.82 195.99 328.82 192.25L328.81 192.26Z" fill="white"/>
<path d="M388.9 193.4C388.9 196.68 388.9 199.95 388.9 203.23C388.9 204.05 388.96 204.79 387.75 204.77C386.51 204.75 386.65 203.95 386.65 203.17C386.65 196.66 386.62 190.14 386.67 183.63C386.67 182.48 386.4 181.98 385.18 182.1C384.14 182.2 383.08 182.1 382.02 182.12C381.31 182.14 381.06 181.79 381.05 181.12C381.05 180.46 381.15 179.94 381.97 179.94C385.83 179.94 389.69 179.94 393.56 179.94C394.35 179.94 394.51 180.4 394.51 181.09C394.51 181.84 394.21 182.15 393.46 182.13C392.33 182.1 391.19 182.18 390.07 182.11C389.11 182.05 388.87 182.45 388.88 183.34C388.92 186.69 388.9 190.05 388.9 193.4V193.4Z" fill="white"/>
<path d="M402.87 192.33C402.87 195.95 402.85 199.57 402.88 203.19C402.89 204.22 402.59 204.67 401.47 204.61C400.62 204.56 400.43 204.2 400.43 203.45C400.45 200.26 400.43 197.06 400.43 193.87C400.43 189.7 400.43 185.54 400.43 181.37C400.43 180.56 400.44 179.92 401.55 179.91C402.61 179.91 402.88 180.39 402.87 181.34C402.84 185 402.86 188.66 402.86 192.32L402.87 192.33Z" fill="white"/>
</g>
<defs>
<clipPath id="clip0_52_180">
<rect width="512.08" height="268.96" fill="white"/>
</clipPath>
</defs>
</svg>
