<svg width="375" height="667" viewBox="0 0 375 667" fill="none" xmlns="http://www.w3.org/2000/svg">
<path fill-rule="evenodd" clip-rule="evenodd" d="M0 0H375V667H0V0ZM96.2583 299.684C96.1795 294.616 97.2819 290.81 99.7271 287.368C102.483 283.498 106.332 280.98 111.17 279.715C113.078 279.217 115.028 278.992 116.988 279C121.8 279.016 126.214 280.229 130.046 282.98C133.173 285.228 135.382 288.099 136.677 291.549C138.414 296.17 138.444 300.828 136.839 305.478C135.955 308.044 134.507 310.333 132.513 312.329C129.149 315.694 124.976 317.601 120.081 318.175C115.689 318.693 111.42 318.215 107.43 316.364C102.255 313.963 98.8916 310.132 97.2031 305.057C96.442 302.76 96.2627 301.37 96.2539 299.676L96.2583 299.684ZM116.787 283.955C116.118 283.919 115.203 284.003 114.294 284.164C109.316 285.031 105.772 287.613 103.668 291.81C101.936 295.275 101.687 298.917 102.575 302.607C103.437 306.181 105.414 309.136 108.778 311.2C111.988 313.168 115.553 313.778 119.337 313.272C124.731 312.549 128.506 309.815 130.654 305.253C132.263 301.84 132.43 298.278 131.55 294.669C130.837 291.761 129.337 289.236 126.905 287.256C124.11 284.975 120.781 283.919 116.787 283.951V283.955ZM256.44 309.991L257.628 309.99L258.576 309.99H258.581C259.034 309.99 259.488 309.99 259.942 309.991L260.728 309.992H260.729H260.729H260.729H260.73C262.88 309.994 265.032 309.996 267.181 309.978C267.714 309.974 267.968 310.143 268.174 310.58C268.705 311.721 269.248 312.857 269.792 313.992C270.29 315.035 270.789 316.078 271.279 317.126C271.481 317.559 271.739 317.74 272.272 317.728C273.319 317.703 274.366 317.707 275.413 317.71C275.901 317.712 276.39 317.713 276.879 317.712C277.828 317.712 277.832 317.704 277.465 316.881C275.7 312.907 273.936 308.934 272.172 304.961C270.408 300.987 268.644 297.014 266.879 293.041C266.035 291.142 265.191 289.242 264.348 287.343C263.505 285.444 262.662 283.544 261.818 281.645C261.236 280.328 260.072 279.617 258.515 279.617C257.172 279.617 255.969 280.412 255.422 281.653C255.087 282.409 254.75 283.163 254.413 283.916C254.077 284.668 253.74 285.42 253.406 286.174C250.646 292.398 247.886 298.618 245.125 304.838L243.903 307.593C242.482 310.794 241.062 313.993 239.644 317.194C239.426 317.692 239.443 317.716 240.034 317.716C240.63 317.717 241.227 317.716 241.824 317.715C242.9 317.713 243.976 317.711 245.051 317.724C245.519 317.732 245.747 317.579 245.93 317.19C246.451 316.076 246.983 314.964 247.516 313.853C248.048 312.742 248.581 311.63 249.102 310.516C249.294 310.099 249.557 309.982 250.029 309.982C252.165 309.994 254.303 309.993 256.44 309.991ZM258.61 287.988C258.56 288.108 258.515 288.212 258.475 288.305C258.437 288.393 258.403 288.472 258.372 288.546C258.342 288.617 258.314 288.685 258.288 288.752C258.019 289.413 257.751 290.073 257.483 290.734L257.478 290.746C256.944 292.061 256.411 293.376 255.873 294.691L255.158 296.441L255.15 296.46L255.148 296.466L255.146 296.471L255.13 296.511C254.001 299.276 252.872 302.039 251.735 304.802C251.577 305.188 251.674 305.284 252.111 305.284C254.801 305.277 257.49 305.277 260.18 305.277L261.617 305.277C262.749 305.277 263.88 305.277 265.011 305.276C265.672 305.276 265.676 305.268 265.448 304.71L265.405 304.603C263.311 299.462 261.217 294.322 259.119 289.182C259.003 288.895 258.878 288.608 258.725 288.254L258.61 287.988ZM153.323 310.362C153.323 309.665 153.32 308.967 153.317 308.27V308.27V308.269V308.269V308.269V308.268V308.268V308.267V308.267V308.267V308.266V308.266V308.266V308.265V308.265V308.265V308.264V308.264V308.263V308.263V308.263V308.262V308.262V308.262V308.261V308.261V308.26V308.26C153.312 306.753 153.306 305.246 153.327 303.741C153.366 300.966 155.799 298.726 158.826 298.609C159.784 298.573 160.743 298.584 161.702 298.596H161.703H161.703H161.704H161.704H161.705H161.706H161.706H161.707H161.707H161.708H161.708H161.709H161.709H161.71H161.711H161.711H161.712H161.712H161.713H161.713H161.714H161.714H161.715H161.715H161.716H161.717H161.717C162.556 298.606 163.395 298.616 164.232 298.593C164.695 298.581 165.159 298.579 165.624 298.577C167.286 298.571 168.95 298.565 170.571 298.075C172.85 297.388 174.656 296.188 175.378 294.015C176.283 291.285 176.003 288.707 173.698 286.567C172.731 285.667 171.511 285.141 170.186 284.816C169.092 284.547 167.981 284.427 166.848 284.431C164.016 284.436 161.182 284.434 158.349 284.432H158.349H158.348H158.348C156.932 284.431 155.516 284.431 154.101 284.431C153.702 284.431 153.507 284.431 153.411 284.333C153.318 284.239 153.318 284.054 153.318 283.692C153.318 283.437 153.319 283.183 153.319 282.929V282.929V282.928V282.928V282.928V282.927V282.927V282.927V282.926V282.926V282.925V282.925V282.925V282.924V282.924V282.924V282.923V282.923V282.922V282.922V282.922V282.921V282.921V282.921V282.92C153.321 282.034 153.322 281.15 153.305 280.262C153.296 279.861 153.45 279.708 153.9 279.712C156.092 279.72 158.288 279.712 160.479 279.7C161.31 279.697 162.14 279.689 162.971 279.681L162.981 279.681C164.085 279.671 165.189 279.66 166.292 279.66C169.359 279.66 172.351 279.989 175.12 281.315C178.895 283.121 181.069 285.956 181.589 289.835C181.935 292.397 181.589 294.871 180.233 297.168C178.834 299.537 176.682 301.135 174.004 302.171L173.949 302.192C173.659 302.304 173.512 302.36 173.483 302.453C173.453 302.547 173.543 302.68 173.725 302.947L173.738 302.966C176.935 307.684 180.128 312.406 183.322 317.128C183.345 317.163 183.375 317.198 183.405 317.233C183.508 317.355 183.617 317.483 183.519 317.626C183.429 317.757 183.26 317.741 183.097 317.725C183.072 317.722 183.047 317.72 183.022 317.718C182.996 317.716 182.97 317.715 182.946 317.715C182.399 317.716 181.852 317.716 181.305 317.716C180.026 317.716 178.746 317.717 177.469 317.731C177.023 317.735 176.756 317.598 176.52 317.249C175.037 315.027 173.551 312.808 172.064 310.588L172.052 310.571L172.041 310.553C170.561 308.343 169.08 306.133 167.605 303.922C167.312 303.484 166.988 303.303 166.415 303.315C164.995 303.341 163.574 303.338 162.154 303.336C161.544 303.335 160.935 303.334 160.326 303.335C159.473 303.335 159.154 303.633 159.154 304.411V316.956C159.154 317.464 158.884 317.719 158.344 317.719L157.873 317.719L157.527 317.718L156.893 317.718C155.926 317.717 154.96 317.716 153.992 317.719C153.331 317.719 153.301 317.703 153.301 317.092V310.374H153.314L153.323 310.362ZM200.942 300.574V287.893V280.336C200.942 280.012 200.942 279.848 201.024 279.764C201.109 279.677 201.282 279.676 201.634 279.674H201.635L201.672 279.674C203.151 279.67 204.634 279.662 206.112 279.63C206.62 279.617 206.795 279.774 206.79 280.252C206.782 283.175 206.785 286.098 206.787 289.022C206.789 290.483 206.79 291.945 206.79 293.407C206.79 294.67 206.791 295.933 206.791 297.197V297.197V297.197V297.197V297.198V297.198V297.198V297.198V297.199V297.199V297.199V297.2V297.2V297.2V297.2V297.201V297.201V297.201V297.201V297.202V297.202V297.202V297.203V297.203V297.203V297.203V297.204C206.791 302.249 206.792 307.293 206.782 312.34C206.782 312.813 206.983 312.91 207.446 312.91C211.483 312.902 215.519 312.901 219.556 312.9L221.305 312.9C222.744 312.899 224.183 312.899 225.622 312.898C226.099 312.898 226.328 312.898 226.438 313.012C226.54 313.118 226.54 313.323 226.54 313.717C226.54 314.049 226.538 314.381 226.537 314.712C226.532 315.509 226.528 316.304 226.549 317.098C226.562 317.564 226.405 317.72 225.88 317.72C219.867 317.707 213.854 317.707 207.84 317.708L204.227 317.708H201.721C200.942 317.708 200.938 317.704 200.938 316.969V305.931V300.574H200.942ZM189.266 386.905C189.18 386.905 189.094 386.905 189.007 386.904C188.878 386.904 188.749 386.903 188.619 386.902C188.187 386.9 187.756 386.897 187.324 386.905C186.966 386.913 186.791 386.805 186.795 386.451C186.804 383.835 186.799 381.222 186.795 378.605V378.601V378.597V378.593V378.589V378.585V378.581V378.577V378.573V378.569V378.565C186.795 378.32 186.847 378.119 187.18 378.127C187.704 378.138 188.228 378.127 188.753 378.117H188.753C189.78 378.096 190.807 378.075 191.825 378.216C192.792 378.352 193.562 378.806 193.851 379.725C194.131 380.625 193.93 381.436 193.138 382.066C192.915 382.243 192.976 382.319 193.182 382.44C194.866 383.424 194.472 385.929 192.556 386.628C191.784 386.908 190.995 386.906 190.201 386.905C190.095 386.905 189.989 386.905 189.883 386.905H189.271H189.266ZM188.685 384.263C188.685 384.362 188.685 384.461 188.686 384.56C188.687 384.758 188.688 384.956 188.685 385.154C188.676 385.399 188.763 385.544 189.061 385.532C189.279 385.525 189.497 385.527 189.716 385.529H189.716C190.195 385.534 190.674 385.538 191.152 385.455C191.887 385.327 192.315 384.885 192.311 384.235C192.307 383.592 191.852 383.135 191.104 383.058C190.804 383.028 190.502 383.029 190.198 383.03H190.198L190.137 383.03L190.032 383.03C189.131 383.03 188.682 383.441 188.685 384.263ZM190.049 379.569V379.553H189.078C188.798 379.553 188.68 379.669 188.685 379.926C188.691 380.218 188.689 380.51 188.687 380.802C188.686 380.947 188.685 381.093 188.685 381.239C188.685 381.428 188.724 381.597 188.978 381.593C189.198 381.59 189.418 381.597 189.639 381.603C190.167 381.618 190.696 381.633 191.217 381.528C191.812 381.408 192.11 381.03 192.079 380.52C192.044 379.998 191.672 379.629 191.069 379.573C190.842 379.551 190.614 379.557 190.384 379.563H190.384H190.384H190.383H190.383H190.382H190.382H190.382H190.381H190.381H190.38H190.38H190.38H190.379H190.379H190.378H190.378H190.377H190.377H190.377H190.376H190.376H190.375C190.267 379.566 190.158 379.569 190.049 379.569ZM75 334.738H299C298.681 334.947 75.6518 335.015 75 334.738ZM161.485 382.513C161.485 382.163 161.486 381.812 161.487 381.462C161.49 380.529 161.493 379.597 161.477 378.662C161.472 378.261 161.612 378.096 162.063 378.112C162.558 378.132 163.055 378.121 163.552 378.11H163.552H163.553H163.553H163.553H163.554H163.554H163.554H163.555H163.555H163.555H163.555H163.556H163.556H163.556H163.557H163.557H163.557H163.558H163.558H163.558H163.559H163.559H163.559C164.373 378.093 165.188 378.075 165.995 378.192C168.204 378.506 169.591 379.947 169.722 382.003C169.775 382.778 169.674 383.537 169.381 384.264C168.738 385.846 167.238 386.838 165.392 386.89C164.736 386.906 164.079 386.904 163.422 386.901C162.952 386.899 162.483 386.897 162.015 386.902C161.617 386.906 161.442 386.769 161.485 386.408V386.36V382.513ZM163.384 382.489V385.023C163.384 385.24 163.393 385.448 163.716 385.444C163.829 385.443 163.943 385.443 164.056 385.444L164.145 385.445L164.214 385.446L164.273 385.447C164.703 385.452 165.132 385.457 165.554 385.404C166.442 385.296 167.093 384.826 167.434 384.055C167.859 383.107 167.894 382.136 167.531 381.168C167.159 380.164 166.293 379.602 165.134 379.574C164.943 379.568 164.751 379.57 164.559 379.572C164.324 379.574 164.09 379.577 163.856 379.566C163.502 379.55 163.371 379.678 163.379 380.003C163.392 380.583 163.389 381.164 163.386 381.744V381.745V381.745V381.746V381.747C163.385 381.905 163.385 382.063 163.384 382.221C163.384 382.31 163.384 382.4 163.384 382.489ZM180.051 380.446V380.447C180.05 380.7 180.049 380.953 180.049 381.206L180.053 381.21H180.031C180.031 381.478 180.034 381.745 180.037 382.012C180.043 382.622 180.05 383.231 180.022 383.84C179.992 384.539 179.738 385.169 178.946 385.462C177.582 385.968 176.335 385.334 176.077 384.004C176.029 383.743 175.998 383.478 175.998 383.213C175.994 382.656 175.995 382.098 175.996 381.541C175.998 380.798 175.999 380.055 175.989 379.314C175.988 379.237 175.988 379.164 175.989 379.096C175.99 378.983 175.993 378.883 175.995 378.795C176.003 378.487 176.007 378.32 175.926 378.229C175.83 378.121 175.612 378.121 175.135 378.121C175.052 378.121 174.962 378.121 174.863 378.12C174.792 378.12 174.717 378.119 174.638 378.118C174.244 378.114 174.091 378.246 174.091 378.612C174.096 379.294 174.094 379.976 174.091 380.658C174.087 381.65 174.083 382.643 174.104 383.635C174.148 385.53 175.176 386.651 177.096 386.948C177.492 387.01 177.903 387.002 178.308 386.994L178.421 386.992C180.49 386.952 181.781 385.791 181.934 383.904C182.021 382.83 182.011 381.753 182.001 380.677L182.001 380.674C181.997 380.234 181.993 379.794 181.995 379.355C181.996 379.184 181.999 379.037 182.002 378.911C182.011 378.527 182.016 378.33 181.92 378.229C181.819 378.124 181.608 378.124 181.175 378.123C181.022 378.123 180.843 378.123 180.63 378.118C180.171 378.106 180.036 378.278 180.044 378.672C180.057 379.262 180.054 379.855 180.051 380.446ZM202.689 378.123C202.959 378.119 203.103 378.116 203.205 378.181C203.322 378.254 203.383 378.416 203.514 378.762C203.551 378.859 203.593 378.971 203.644 379.1C204.118 380.306 204.592 381.513 205.065 382.72C205.539 383.926 206.012 385.133 206.487 386.34C206.697 386.878 206.68 386.898 206.08 386.902C205.17 386.91 204.558 386.523 204.243 385.741C203.969 385.059 203.438 384.717 202.651 384.717C202.447 384.717 202.243 384.719 202.038 384.72H202.038C201.628 384.723 201.218 384.725 200.809 384.717C200.485 384.709 200.311 384.83 200.219 385.115C200.124 385.403 200.014 385.689 199.905 385.974L199.904 385.975C199.833 386.162 199.761 386.349 199.694 386.536C199.602 386.797 199.431 386.918 199.129 386.906C198.788 386.894 198.447 386.894 198.106 386.906C197.756 386.914 197.703 386.777 197.813 386.5C198.823 383.826 199.829 381.152 200.831 378.473C200.923 378.232 201.08 378.116 201.36 378.124C201.523 378.129 201.688 378.128 201.876 378.126H201.879L201.894 378.126H201.896H201.897C201.994 378.125 202.097 378.124 202.209 378.124C202.404 378.128 202.561 378.125 202.689 378.123ZM202.051 379.678L201.963 379.934C201.609 380.961 201.285 381.899 200.958 382.83C200.866 383.095 200.949 383.212 201.255 383.208C201.82 383.204 202.38 383.199 202.944 383.208C203.263 383.216 203.333 383.099 203.233 382.834C202.945 382.076 202.663 381.316 202.364 380.51L202.354 380.485L202.353 380.481L202.305 380.352L202.051 379.67V379.678ZM264.77 360.663V352.941L264.775 352.937C264.867 353.066 264.902 353.102 264.919 353.142C265.467 354.394 266.014 355.647 266.561 356.9C267.106 358.147 267.65 359.393 268.196 360.639C268.248 360.755 268.287 360.88 268.357 360.984C268.559 361.285 268.857 361.251 269.144 361.217C269.225 361.208 269.304 361.199 269.381 361.197C269.688 361.19 269.683 360.962 269.679 360.761C269.679 360.739 269.678 360.717 269.678 360.695C269.68 359.419 269.68 358.143 269.679 356.867C269.679 355.168 269.678 353.468 269.683 351.769C269.683 351.427 269.587 351.247 269.167 351.247C268.76 351.251 268.624 351.415 268.633 351.765C268.65 352.51 268.644 353.255 268.637 354C268.627 355.148 268.617 356.297 268.694 357.447C268.721 357.853 268.713 358.262 268.706 358.671C268.702 358.864 268.699 359.057 268.699 359.25C268.546 359.073 268.458 358.892 268.375 358.708L265.265 351.709C265.064 351.263 264.797 351.17 264.141 351.263C263.744 351.322 263.768 351.557 263.79 351.779C263.794 351.829 263.799 351.879 263.799 351.925C263.793 353.487 263.794 355.047 263.794 356.607V356.608V356.608C263.795 357.13 263.795 357.651 263.795 358.173C263.795 358.333 263.795 358.493 263.796 358.653L263.797 358.926V358.926V358.927L263.797 358.947C263.8 359.55 263.803 360.154 263.791 360.755C263.782 361.105 263.939 361.225 264.307 361.225C264.762 361.225 264.77 360.968 264.77 360.663ZM122.798 356.199C122.798 355.834 122.798 355.47 122.799 355.105C122.801 354.014 122.802 352.923 122.789 351.83C122.785 351.408 122.942 351.231 123.41 351.252C123.74 351.265 124.07 351.263 124.4 351.261H124.4C124.939 351.258 125.478 351.255 126.017 351.32C127.115 351.456 127.863 352.018 128.06 353.014C128.279 354.127 128.266 355.215 127.128 355.986C126.953 356.102 127.023 356.178 127.155 356.267C127.863 356.741 128.012 357.443 128.038 358.182C128.048 358.454 128.049 358.726 128.049 358.998C128.049 359.554 128.049 360.112 128.135 360.668C128.138 360.69 128.142 360.714 128.146 360.737C128.18 360.937 128.219 361.161 127.824 361.158C127.792 361.157 127.76 361.157 127.729 361.157C127.396 361.158 127.091 361.158 127.067 360.7C127.058 360.518 127.046 360.337 127.034 360.156C127.005 359.729 126.976 359.302 126.988 358.873C126.997 358.544 126.988 358.214 126.958 357.889C126.884 357.13 126.516 356.729 125.72 356.6L125.62 356.584C125.057 356.49 124.417 356.383 123.979 356.648C123.719 356.804 123.768 357.163 123.815 357.517C123.835 357.664 123.855 357.81 123.852 357.941C123.83 358.849 123.835 359.756 123.852 360.664C123.861 361.021 123.734 361.166 123.323 361.166C122.912 361.166 122.789 361.013 122.789 360.66C122.795 359.669 122.793 358.677 122.791 357.685V357.684L122.79 356.934C122.789 356.689 122.789 356.444 122.789 356.199H122.798ZM123.848 353.89V354.452C123.848 355.416 124.378 355.84 125.44 355.725C126.35 355.624 126.8 355.315 127.006 354.596C127.137 354.139 127.133 353.661 127.019 353.203C126.857 352.565 126.354 352.179 125.637 352.139C125.369 352.123 125.099 352.125 124.83 352.128C124.638 352.13 124.446 352.132 124.255 352.127C123.935 352.119 123.839 352.263 123.848 352.528C123.854 352.831 123.852 353.133 123.85 353.436C123.849 353.587 123.848 353.738 123.848 353.89ZM180.651 354.999C180.65 355.396 180.649 355.794 180.649 356.191H180.654C180.654 356.665 180.653 357.138 180.653 357.612V357.613C180.652 358.563 180.651 359.513 180.654 360.464C180.654 360.509 180.653 360.555 180.651 360.6C180.641 360.884 180.631 361.16 181.17 361.166C181.725 361.174 181.72 360.891 181.714 360.581C181.713 360.549 181.712 360.516 181.712 360.484V357.902C181.712 356.428 181.861 356.316 183.484 356.569C184.258 356.689 184.569 356.962 184.761 357.665C184.857 358.013 184.853 358.367 184.849 358.721C184.849 358.78 184.848 358.839 184.848 358.899C184.848 358.955 184.848 359.01 184.849 359.066C184.851 359.191 184.851 359.315 184.851 359.44C184.851 359.909 184.852 360.379 184.945 360.845C185.013 361.182 185.247 361.168 185.479 361.154C185.546 361.15 185.613 361.146 185.676 361.15C185.951 361.171 186.039 361.018 185.999 360.793C185.906 360.285 185.911 359.775 185.915 359.266C185.918 358.962 185.921 358.659 185.903 358.356C185.859 357.569 185.785 356.782 184.989 356.264C184.823 356.155 184.875 356.067 185.011 355.974C185.925 355.34 186.069 354.441 186.004 353.489C185.916 352.216 185.094 351.465 183.716 351.313C183.23 351.258 182.744 351.261 182.258 351.264H182.258C181.926 351.266 181.594 351.269 181.262 351.252C180.794 351.228 180.636 351.393 180.641 351.822C180.657 352.882 180.654 353.94 180.651 354.999ZM181.708 354.513V353.902V352.493C181.708 352.304 181.743 352.136 182.001 352.136C182.168 352.137 182.334 352.132 182.5 352.127C182.915 352.115 183.329 352.104 183.738 352.184C184.311 352.296 184.674 352.618 184.836 353.128C185.024 353.718 184.989 354.304 184.744 354.874C184.464 355.533 183.83 355.677 183.165 355.73C181.708 355.846 181.708 355.838 181.708 354.513ZM104.672 355.316L104.673 355.023C104.675 353.964 104.678 352.907 104.662 351.847C104.658 351.401 104.828 351.224 105.318 351.248C105.597 351.261 105.877 351.262 106.157 351.264C106.592 351.266 107.028 351.268 107.462 351.312C108.66 351.433 109.496 351.999 109.968 352.999C110.585 354.3 110.585 355.677 110.484 357.059C110.454 357.448 110.393 357.838 110.314 358.219C109.876 360.315 108.765 361.17 106.447 361.219C106.296 361.222 106.146 361.22 105.995 361.218C105.77 361.215 105.546 361.212 105.323 361.227C104.837 361.259 104.658 361.082 104.662 360.632C104.678 359.563 104.675 358.492 104.673 357.422C104.672 357.021 104.671 356.62 104.671 356.219V356.215C104.671 355.915 104.672 355.616 104.672 355.316ZM105.725 356.243V359.853V359.902L105.726 359.931L105.727 359.965C105.731 360.143 105.734 360.304 106.027 360.347C107.632 360.576 108.787 359.91 109.168 358.452C109.548 357.002 109.575 355.537 109.238 354.079C108.953 352.862 108.288 352.288 107.059 352.156C106.913 352.141 106.766 352.142 106.619 352.143C106.493 352.144 106.366 352.145 106.241 352.136C105.83 352.1 105.712 352.26 105.716 352.626C105.73 353.529 105.728 354.432 105.726 355.337C105.726 355.639 105.725 355.941 105.725 356.243ZM119.638 356.178L119.64 356.145V356.141C119.636 356.05 119.631 355.958 119.627 355.866L119.627 355.861C119.578 354.776 119.527 353.666 119.032 352.623C118.577 351.668 117.776 351.162 116.639 351.138C115.506 351.114 114.675 351.563 114.159 352.499C113.953 352.864 113.796 353.242 113.695 353.639C113.367 354.968 113.402 356.314 113.498 357.659C113.551 358.426 113.7 359.185 114.071 359.887C114.435 360.57 114.964 361.064 115.795 361.245C117.413 361.594 118.726 360.827 119.229 359.241C119.545 358.251 119.591 357.231 119.638 356.178ZM118.538 355.697C118.547 355.874 118.556 356.056 118.568 356.245L118.564 356.249C118.522 356.544 118.505 356.851 118.489 357.165C118.461 357.694 118.432 358.242 118.275 358.779C118.192 359.064 118.091 359.345 117.938 359.61C117.637 360.136 117.199 360.458 116.521 360.449C115.852 360.441 115.41 360.116 115.117 359.59C114.776 358.98 114.644 358.317 114.588 357.647C114.474 356.354 114.448 355.057 114.754 353.776C114.841 353.422 114.977 353.085 115.178 352.772C115.834 351.748 117.269 351.752 117.921 352.784C118.258 353.322 118.371 353.928 118.45 354.535C118.499 354.912 118.518 355.292 118.538 355.697ZM208.14 356.21C208.171 357.166 208.101 358.166 207.799 359.137C207.462 360.226 206.863 361.077 205.52 361.286C204.317 361.47 203.224 360.992 202.664 359.989C202.165 359.085 202.06 358.105 201.99 357.118C201.885 355.7 201.946 354.295 202.476 352.945C203.079 351.408 204.558 350.765 206.15 351.315C206.929 351.584 207.371 352.142 207.651 352.829C208.088 353.905 208.154 355.026 208.132 356.21H208.14ZM207.06 356.186C207.06 356.083 207.062 355.98 207.064 355.877C207.069 355.651 207.074 355.426 207.056 355.202L207.055 355.2C206.99 354.39 206.924 353.575 206.491 352.841C206.198 352.339 205.756 352.038 205.105 352.022C204.444 352.006 204.015 352.319 203.701 352.801C203.526 353.07 203.399 353.363 203.324 353.668C202.966 355.102 202.979 356.547 203.171 357.997C203.246 358.543 203.372 359.077 203.648 359.571C204.029 360.266 204.715 360.591 205.45 360.414C206.229 360.23 206.535 359.643 206.736 359.017C207.034 358.093 207.086 357.142 207.056 356.186H207.06ZM260.244 359.09C260.528 358.135 260.616 357.151 260.572 356.231H260.567C260.594 355.027 260.524 353.906 260.086 352.83C259.68 351.83 258.931 351.216 257.737 351.148C256.517 351.076 255.625 351.545 255.095 352.565C254.391 353.927 254.343 355.384 254.404 356.842C254.452 357.902 254.548 358.97 255.078 359.95C255.651 361.002 256.718 361.484 257.956 361.287C259.321 361.074 259.916 360.195 260.244 359.09ZM259.281 353.77C259.47 354.565 259.526 355.376 259.5 356.159L259.496 356.163C259.518 357.006 259.456 357.818 259.281 358.617C259.203 358.97 259.08 359.311 258.896 359.633C258.603 360.142 258.166 360.444 257.519 360.456C256.862 360.468 256.434 360.142 256.119 359.657C255.808 359.175 255.69 358.637 255.611 358.095C255.393 356.617 255.384 355.139 255.756 353.674C255.852 353.304 256.009 352.959 256.241 352.646C256.836 351.851 258.013 351.798 258.695 352.537C259.028 352.895 259.176 353.324 259.281 353.77ZM145.652 357.521V357.521C145.65 358.572 145.648 359.624 145.658 360.674C145.658 361.036 145.566 361.224 145.12 361.224C144.665 361.224 144.586 361.02 144.59 360.666C144.596 360.102 144.595 359.539 144.594 358.976V358.974C144.593 358.271 144.591 357.568 144.603 356.864C144.608 356.478 144.468 356.342 144.043 356.354C143.208 356.378 142.372 356.382 141.537 356.354C141.095 356.338 140.942 356.462 140.951 356.884C140.966 357.609 140.964 358.332 140.961 359.056C140.96 359.599 140.958 360.143 140.964 360.686C140.964 361.012 140.911 361.224 140.474 361.228C140.058 361.228 139.892 361.092 139.897 360.706C139.905 357.731 139.905 354.76 139.897 351.784C139.897 351.407 140.041 351.25 140.465 351.25C140.89 351.25 140.968 351.443 140.964 351.78C140.958 352.253 140.959 352.726 140.96 353.199V353.201C140.962 353.791 140.963 354.382 140.951 354.972C140.942 355.362 141.086 355.498 141.511 355.49C142.364 355.47 143.217 355.47 144.07 355.49C144.468 355.498 144.612 355.358 144.603 354.996C144.593 354.388 144.595 353.78 144.596 353.172C144.597 352.716 144.598 352.26 144.595 351.804C144.59 351.447 144.682 351.25 145.128 351.25C145.574 351.25 145.662 351.451 145.662 351.808C145.653 352.869 145.654 353.932 145.656 354.995V354.995C145.657 355.42 145.658 355.845 145.658 356.269L145.653 356.261C145.653 356.681 145.652 357.101 145.652 357.521ZM159.888 356.639C160.789 357.077 161.344 357.715 161.287 358.599V358.595C161.287 359.739 160.802 360.354 159.918 360.438C158.75 360.546 158.007 360.06 157.762 359.02C157.755 358.991 157.751 358.961 157.748 358.932C157.742 358.884 157.737 358.836 157.718 358.792C157.606 358.515 157.38 358.539 157.159 358.562C157.094 358.569 157.03 358.576 156.97 358.575C156.721 358.571 156.686 358.743 156.686 358.936C156.699 359.976 157.543 360.976 158.623 361.221C160.076 361.55 161.436 361.092 162.005 360.084C162.796 358.683 162.32 356.936 160.881 356.065C160.552 355.868 160.202 355.7 159.854 355.533L159.852 355.532C159.732 355.474 159.613 355.417 159.494 355.358C159.131 355.178 158.776 354.993 158.497 354.708C157.998 354.198 157.884 353.322 158.234 352.68C158.51 352.17 159.074 351.945 159.848 352.033C160.5 352.11 160.898 352.483 161.077 353.294C161.174 353.732 161.475 353.744 161.834 353.708C162.236 353.671 162.182 353.405 162.137 353.184L162.132 353.159L162.127 353.134C161.974 352.298 161.567 351.608 160.64 351.319C159.621 351.001 158.636 351.07 157.81 351.756C156.546 352.804 156.725 354.76 158.151 355.74C158.556 356.018 159.003 356.225 159.449 356.432C159.596 356.5 159.742 356.569 159.888 356.639ZM172.853 356.205C172.853 355.805 172.854 355.404 172.855 355.002V355C172.857 353.931 172.86 352.86 172.844 351.792C172.839 351.379 172.997 351.242 173.439 351.246C174.668 351.262 175.893 351.258 177.122 351.246C177.489 351.246 177.699 351.339 177.695 351.724C177.691 352.114 177.437 352.134 177.118 352.13C176.729 352.126 176.342 352.127 175.955 352.128C175.439 352.129 174.923 352.131 174.405 352.122C174.025 352.114 173.894 352.25 173.898 352.587C173.916 353.386 173.916 354.186 173.898 354.981C173.889 355.342 174.034 355.487 174.436 355.478C174.939 355.469 175.443 355.471 175.946 355.473C176.261 355.475 176.575 355.476 176.89 355.474C177.214 355.474 177.502 355.474 177.507 355.9C177.511 356.354 177.218 356.354 176.868 356.35C176.518 356.346 176.167 356.347 175.816 356.348C175.349 356.35 174.882 356.351 174.414 356.342C174.042 356.334 173.894 356.454 173.898 356.804C173.911 357.836 173.911 358.872 173.898 359.904C173.898 360.229 174.034 360.345 174.384 360.337C175.372 360.325 176.361 360.329 177.349 360.337C177.38 360.337 177.412 360.335 177.445 360.334C177.63 360.324 177.832 360.313 177.813 360.602L177.81 360.65C177.795 360.918 177.779 361.197 177.358 361.205C176.982 361.213 176.606 361.213 176.234 361.213H173.522C172.866 361.213 172.848 361.193 172.848 360.566V356.197L172.853 356.205ZM194.943 359.354C194.528 358.354 194.488 357.306 194.519 356.254L194.51 356.246C194.51 356.212 194.51 356.179 194.51 356.145L194.509 356.096C194.508 356.022 194.506 355.948 194.504 355.874V355.873V355.873C194.497 355.606 194.491 355.339 194.515 355.073C194.58 354.274 194.681 353.479 195.144 352.772C195.494 352.238 196.019 351.981 196.689 352.041C197.349 352.102 197.773 352.463 197.966 353.041C198.012 353.171 198.043 353.306 198.074 353.441L198.074 353.441L198.092 353.516C198.108 353.586 198.125 353.655 198.145 353.724C198.23 354.025 198.457 354.005 198.677 353.985L198.679 353.985C198.716 353.982 198.754 353.979 198.79 353.977L198.804 353.977L198.82 353.976L198.834 353.976C198.845 353.976 198.856 353.976 198.867 353.977C199.138 353.993 199.226 353.828 199.195 353.608C199.033 352.479 198.574 351.499 197.275 351.214C195.932 350.921 194.768 351.391 194.134 352.499C193.902 352.905 193.74 353.33 193.635 353.776C193.307 355.17 193.377 356.575 193.469 357.98C193.508 358.559 193.635 359.129 193.867 359.675C194.379 360.888 195.516 361.486 196.859 361.293C198.517 361.056 199.059 359.815 199.217 358.751C199.252 358.522 199.143 358.406 198.88 358.386C198.46 358.354 198.185 358.398 198.115 358.892C198.014 359.566 197.686 360.153 196.894 360.382C196.067 360.623 195.306 360.229 194.943 359.354ZM131.066 355.969C131.053 355.371 131.123 354.419 131.403 353.492C131.7 352.516 132.173 351.637 133.314 351.267C135.099 350.693 136.879 351.881 136.866 353.628C136.866 353.845 136.831 354.014 136.547 353.99C136.514 353.987 136.479 353.986 136.444 353.987C136.411 353.988 136.378 353.99 136.345 353.993H136.345H136.344H136.344H136.343H136.342H136.342H136.341C136.111 354.007 135.876 354.021 135.812 353.692C135.799 353.63 135.788 353.567 135.777 353.504C135.749 353.352 135.722 353.198 135.672 353.05C135.471 352.484 135.06 352.11 134.395 352.042C133.717 351.974 133.201 352.247 132.851 352.769C132.549 353.215 132.404 353.708 132.317 354.226C132.072 355.708 132.12 357.186 132.396 358.66C132.461 359.013 132.593 359.354 132.785 359.671C133.411 360.683 134.837 360.695 135.488 359.696C135.663 359.422 135.751 359.121 135.816 358.812C135.908 358.403 136.162 358.29 136.652 358.387C136.991 358.455 136.937 358.648 136.887 358.826C136.875 358.868 136.863 358.91 136.858 358.949C136.569 360.695 135.147 361.619 133.358 361.233C132.418 361.033 131.88 360.438 131.556 359.651C131.114 358.579 131.083 357.451 131.066 355.961V355.969ZM234.304 352.916C233.836 354.037 233.753 355.201 233.788 356.426H233.784C233.762 357.47 233.81 358.546 234.212 359.582C234.532 360.405 235.074 361.032 236.063 361.24C237.865 361.618 239.339 360.638 239.562 358.891C239.566 358.861 239.573 358.829 239.581 358.795L239.581 358.795C239.619 358.616 239.664 358.407 239.326 358.393C239.28 358.392 239.232 358.388 239.184 358.385C238.881 358.362 238.561 358.339 238.508 358.779C238.469 359.124 238.35 359.449 238.145 359.747C237.497 360.686 236.168 360.682 235.525 359.743C235.284 359.393 235.153 359.004 235.074 358.602C234.785 357.157 234.79 355.703 234.995 354.253C235.078 353.663 235.253 353.085 235.66 352.595C236.369 351.744 237.786 351.88 238.276 352.852C238.416 353.125 238.477 353.414 238.521 353.711C238.563 354.013 238.789 354.002 239.007 353.991C239.063 353.989 239.117 353.986 239.168 353.988C239.396 354 239.549 353.928 239.571 353.675C239.663 352.687 238.81 351.523 237.769 351.242C236.251 350.832 234.903 351.483 234.304 352.916ZM226.31 355.035V355.035V355.032C226.312 353.963 226.315 352.893 226.299 351.825C226.29 351.395 226.444 351.242 226.912 351.25C227.666 351.263 228.421 351.261 229.175 351.259H229.18L229.602 351.258L229.862 351.258L230.067 351.258L230.231 351.258L230.442 351.258L230.47 351.258L230.507 351.258C230.811 351.256 231.09 351.254 231.098 351.692C231.102 352.139 230.828 352.138 230.501 352.138L230.468 352.138C230.145 352.136 229.821 352.137 229.498 352.138C228.934 352.139 228.37 352.14 227.808 352.13C227.441 352.122 227.283 352.218 227.292 352.579C227.314 353.395 227.314 354.206 227.292 355.021C227.283 355.366 227.423 355.495 227.795 355.491C228.319 355.481 228.843 355.483 229.366 355.485H229.37C229.698 355.487 230.026 355.488 230.354 355.487C230.7 355.487 230.953 355.535 230.953 355.94C230.953 356.366 230.669 356.366 230.341 356.362C230.152 356.361 229.962 356.361 229.773 356.362C229.663 356.362 229.554 356.362 229.445 356.363C228.908 356.365 228.371 356.367 227.835 356.354C227.45 356.346 227.279 356.438 227.292 356.828C227.318 357.844 227.318 358.864 227.292 359.88C227.283 360.269 227.454 360.357 227.835 360.349C228.526 360.338 229.218 360.341 229.911 360.343C230.208 360.344 230.506 360.345 230.805 360.345H230.821C231.061 360.345 231.307 360.345 231.277 360.675C231.251 360.952 231.216 361.221 230.805 361.217H226.71C226.308 361.217 226.308 360.968 226.308 360.703V356.242V356.238C226.308 355.837 226.309 355.436 226.31 355.035ZM149.296 355.003V355.003C149.295 355.404 149.294 355.805 149.294 356.205L149.29 356.201V356.205C149.294 357.71 149.298 359.21 149.29 360.711C149.29 361.024 149.355 361.221 149.758 361.221C151.084 361.213 152.411 361.217 153.737 361.221H153.747C154.184 361.225 154.224 360.948 154.25 360.655C154.274 360.336 154.045 360.341 153.83 360.345H153.83L153.798 360.345C153.785 360.345 153.773 360.345 153.76 360.345H153.753C152.749 360.341 151.745 360.337 150.742 360.345C150.427 360.349 150.274 360.273 150.274 359.952C150.287 358.888 150.287 357.824 150.274 356.76C150.269 356.446 150.409 356.35 150.733 356.354C151.206 356.361 151.679 356.36 152.154 356.359H152.162C152.555 356.359 152.947 356.358 153.34 356.362C153.686 356.366 153.944 356.33 153.935 355.92C153.931 355.507 153.651 355.487 153.318 355.487C153.034 355.487 152.75 355.485 152.465 355.484C151.897 355.481 151.328 355.479 150.759 355.487C150.414 355.491 150.269 355.378 150.274 355.049C150.291 354.218 150.291 353.387 150.274 352.559C150.269 352.23 150.405 352.122 150.755 352.126C151.283 352.135 151.809 352.134 152.335 352.132C152.73 352.131 153.124 352.13 153.52 352.134C153.839 352.138 154.075 352.114 154.079 351.72C154.084 351.319 153.87 351.25 153.511 351.25C152.304 351.262 151.092 351.266 149.88 351.25C149.443 351.242 149.281 351.375 149.285 351.792C149.301 352.861 149.299 353.931 149.296 355V355.003ZM210.554 381.459V381.459C210.556 380.526 210.559 379.592 210.543 378.66C210.539 378.254 210.692 378.106 211.138 378.114C211.318 378.117 211.474 378.117 211.609 378.118H211.61C212.07 378.119 212.283 378.12 212.379 378.227C212.462 378.319 212.457 378.49 212.449 378.809C212.445 378.946 212.44 379.11 212.442 379.306C212.447 380.341 212.446 381.376 212.445 382.411V382.416C212.444 383.709 212.443 385.002 212.455 386.297C212.459 386.767 212.31 386.928 211.79 386.911C211.601 386.906 211.442 386.904 211.306 386.903C210.922 386.899 210.731 386.897 210.638 386.801C210.546 386.707 210.547 386.521 210.551 386.154C210.552 386.049 210.553 385.928 210.552 385.791C210.546 385.061 210.548 384.332 210.55 383.603V383.602C210.551 383.237 210.552 382.872 210.552 382.507C210.552 382.158 210.553 381.809 210.554 381.46V381.459V381.459ZM166.811 355.531C166.812 355.894 166.813 356.256 166.813 356.619L166.826 356.615C166.826 356.962 166.826 357.309 166.826 357.657C166.827 358.7 166.828 359.746 166.821 360.791C166.817 361.136 167.014 361.212 167.333 361.212C167.639 361.212 167.875 361.152 167.871 360.807C167.862 360.65 167.871 360.494 167.871 360.337L167.871 359.053L167.872 358.423C167.872 356.511 167.873 354.599 167.867 352.688C167.867 352.318 167.924 352.081 168.418 352.117C168.687 352.136 168.958 352.132 169.229 352.127C169.42 352.124 169.61 352.12 169.8 352.125C170.124 352.137 170.255 352.013 170.255 351.712C170.251 351.435 170.189 351.25 169.84 351.25H164.827C164.49 351.25 164.385 351.419 164.385 351.7C164.385 351.985 164.49 352.137 164.831 352.129C164.868 352.128 164.905 352.128 164.941 352.127C164.995 352.127 165.049 352.126 165.103 352.126C165.219 352.126 165.336 352.128 165.453 352.129C165.722 352.132 165.992 352.135 166.261 352.121C166.681 352.097 166.826 352.234 166.821 352.627C166.805 353.597 166.808 354.564 166.811 355.531ZM211.36 356.233C211.36 355.866 211.361 355.499 211.362 355.131C211.363 354.028 211.365 352.923 211.352 351.82C211.347 351.435 211.452 351.246 211.92 351.25C212.393 351.254 212.432 351.487 212.432 351.824C212.426 353.578 212.428 355.331 212.43 357.085C212.431 357.961 212.432 358.838 212.432 359.715C212.432 360.341 212.432 360.345 213.101 360.345C213.319 360.345 213.536 360.345 213.753 360.345C214.406 360.344 215.06 360.343 215.713 360.349C215.743 360.349 215.775 360.347 215.809 360.346L215.811 360.345C215.998 360.335 216.217 360.323 216.198 360.598L216.196 360.639C216.18 360.914 216.163 361.224 215.7 361.22H213.141C212.716 361.22 212.288 361.208 211.863 361.22C211.439 361.237 211.356 361.028 211.36 360.69C211.37 359.629 211.368 358.566 211.366 357.504V357.503C211.366 357.078 211.365 356.654 211.365 356.229L211.36 356.233ZM218.834 354.956C218.834 355.371 218.833 355.786 218.833 356.201L218.837 356.197C218.837 356.573 218.838 356.948 218.838 357.323C218.84 358.45 218.842 359.576 218.828 360.703C218.82 361.096 218.982 361.229 219.393 361.221C219.907 361.209 220.418 361.212 220.931 361.215H220.931H220.932C221.152 361.216 221.372 361.217 221.593 361.217C221.654 361.217 221.716 361.217 221.777 361.217L221.958 361.217H221.96C222.384 361.219 222.808 361.22 223.229 361.205C223.627 361.19 223.643 360.91 223.656 360.667L223.658 360.641C223.659 360.618 223.66 360.596 223.662 360.574C223.684 360.324 223.475 360.334 223.298 360.342L223.297 360.343C223.267 360.344 223.238 360.345 223.212 360.345C222.341 360.341 221.475 360.341 220.604 360.341C220.239 360.339 220.062 360.338 219.976 360.249C219.896 360.166 219.896 360.006 219.896 359.695C219.896 358.825 219.895 357.955 219.895 357.085V357.085V357.084C219.894 355.343 219.893 353.601 219.896 351.861C219.896 351.515 219.87 351.25 219.367 351.246C218.868 351.238 218.828 351.475 218.828 351.837C218.838 352.878 218.836 353.917 218.834 354.956V354.956ZM245.117 356.659V360.606L245.118 360.651C245.119 360.962 245.12 361.232 244.614 361.224C244.122 361.217 244.127 360.952 244.132 360.669C244.133 360.64 244.133 360.611 244.133 360.582C244.133 359.869 244.132 359.157 244.131 358.444C244.129 356.541 244.126 354.637 244.142 352.736C244.142 352.274 244.024 352.073 243.49 352.121C243.206 352.146 242.919 352.14 242.631 352.134H242.63C242.456 352.13 242.282 352.126 242.108 352.129C241.797 352.137 241.688 351.997 241.684 351.728C241.684 351.463 241.727 351.254 242.086 351.254H247.156C247.501 351.254 247.571 351.439 247.571 351.716C247.571 352.017 247.44 352.141 247.112 352.133C246.903 352.128 246.693 352.131 246.483 352.134C246.197 352.138 245.912 352.141 245.629 352.125C245.209 352.101 245.104 352.262 245.109 352.619C245.122 353.628 245.12 354.639 245.119 355.649C245.118 355.832 245.118 356.015 245.118 356.198C245.118 356.352 245.117 356.505 245.117 356.659ZM251.226 357.475C251.227 357.06 251.227 356.645 251.227 356.229L251.223 356.225C251.223 355.806 251.222 355.386 251.222 354.966C251.22 353.916 251.218 352.866 251.227 351.816C251.232 351.435 251.114 351.242 250.65 351.242C250.165 351.246 250.16 351.503 250.16 351.828V356.848C250.16 357.275 250.161 357.702 250.162 358.129C250.164 358.985 250.166 359.84 250.16 360.695C250.16 360.996 250.243 361.14 250.615 361.16C251.105 361.184 251.236 361.004 251.232 360.59C251.223 359.552 251.224 358.513 251.226 357.475Z" fill="black"/>
</svg>
